<svg xmlns="http://www.w3.org/2000/svg" xmlns:xlink="http://www.w3.org/1999/xlink" width="120" zoomAndPan="magnify" viewBox="0 0 90 30.000001" height="40" preserveAspectRatio="xMidYMid meet" version="1.0"><defs><g/><clipPath id="ef9f683b7c"><path d="M 19 6 L 88.546875 6 L 88.546875 23 L 19 23 Z M 19 6 " clip-rule="nonzero"/></clipPath><clipPath id="72a5a4659d"><path d="M 61 5 L 69.546875 5 L 69.546875 13 L 61 13 Z M 61 5 " clip-rule="nonzero"/></clipPath><clipPath id="0c8f330d73"><rect x="0" width="70" y="0" height="17"/></clipPath><clipPath id="3508253d7f"><path d="M 1.453125 6.335938 L 18.144531 6.335938 L 18.144531 20 L 1.453125 20 Z M 1.453125 6.335938 " clip-rule="nonzero"/></clipPath><clipPath id="8512f6817f"><path d="M 7 9 L 13 9 L 13 25.207031 L 7 25.207031 Z M 7 9 " clip-rule="nonzero"/></clipPath><clipPath id="1b09a65f53"><path d="M 76 19 L 88.546875 19 L 88.546875 29.03125 L 76 29.03125 Z M 76 19 " clip-rule="nonzero"/></clipPath><clipPath id="61877e9838"><path d="M 0.703125 8 L 2 8 L 2 10 L 0.703125 10 Z M 0.703125 8 " clip-rule="nonzero"/></clipPath><clipPath id="5c1f1fca73"><path d="M 7 3 L 12.546875 3 L 12.546875 10 L 7 10 Z M 7 3 " clip-rule="nonzero"/></clipPath><clipPath id="c252465766"><rect x="0" width="13" y="0" height="11"/></clipPath></defs><g clip-path="url(#ef9f683b7c)"><g transform="matrix(1, 0, 0, 1, 19, 6)"><g clip-path="url(#0c8f330d73)"><g fill="#42788f" fill-opacity="1"><g transform="translate(0.463372, 12.698996)"><g><path d="M 5.375 -9.375 C 6.03125 -9.375 6.644531 -9.257812 7.21875 -9.03125 C 7.789062 -8.800781 8.3125 -8.4375 8.78125 -7.9375 C 8.882812 -7.8125 8.925781 -7.6875 8.90625 -7.5625 C 8.894531 -7.445312 8.835938 -7.347656 8.734375 -7.265625 C 8.628906 -7.179688 8.515625 -7.132812 8.390625 -7.125 C 8.265625 -7.125 8.148438 -7.175781 8.046875 -7.28125 C 7.660156 -7.695312 7.242188 -7.984375 6.796875 -8.140625 C 6.347656 -8.304688 5.882812 -8.390625 5.40625 -8.390625 C 5.007812 -8.390625 4.59375 -8.332031 4.15625 -8.21875 C 3.726562 -8.101562 3.320312 -7.910156 2.9375 -7.640625 C 2.550781 -7.367188 2.238281 -6.992188 2 -6.515625 C 1.757812 -6.046875 1.640625 -5.453125 1.640625 -4.734375 C 1.640625 -4.003906 1.804688 -3.347656 2.140625 -2.765625 C 2.472656 -2.179688 2.921875 -1.71875 3.484375 -1.375 C 4.046875 -1.03125 4.65625 -0.859375 5.3125 -0.859375 C 5.875 -0.859375 6.40625 -0.976562 6.90625 -1.21875 C 7.40625 -1.457031 7.820312 -1.796875 8.15625 -2.234375 C 8.238281 -2.347656 8.34375 -2.410156 8.46875 -2.421875 C 8.601562 -2.429688 8.722656 -2.398438 8.828125 -2.328125 C 8.941406 -2.253906 9.019531 -2.15625 9.0625 -2.03125 C 9.101562 -1.914062 9.078125 -1.789062 8.984375 -1.65625 C 8.722656 -1.28125 8.390625 -0.957031 7.984375 -0.6875 C 7.578125 -0.414062 7.140625 -0.207031 6.671875 -0.0625 C 6.210938 0.0703125 5.75 0.140625 5.28125 0.140625 C 4.664062 0.140625 4.078125 0.0195312 3.515625 -0.21875 C 2.953125 -0.457031 2.453125 -0.796875 2.015625 -1.234375 C 1.578125 -1.671875 1.234375 -2.1875 0.984375 -2.78125 C 0.734375 -3.382812 0.609375 -4.039062 0.609375 -4.75 C 0.609375 -5.582031 0.757812 -6.289062 1.0625 -6.875 C 1.375 -7.457031 1.769531 -7.929688 2.25 -8.296875 C 2.738281 -8.671875 3.257812 -8.941406 3.8125 -9.109375 C 4.363281 -9.285156 4.882812 -9.375 5.375 -9.375 Z M 5.375 -9.375 "/></g></g></g><g fill="#42788f" fill-opacity="1"><g transform="translate(10.139232, 12.698996)"><g><path d="M 4.3125 0.140625 C 3.550781 0.140625 2.882812 -0.0351562 2.3125 -0.390625 C 1.738281 -0.742188 1.296875 -1.21875 0.984375 -1.8125 C 0.671875 -2.40625 0.515625 -3.0625 0.515625 -3.78125 C 0.515625 -4.476562 0.679688 -5.101562 1.015625 -5.65625 C 1.347656 -6.21875 1.796875 -6.660156 2.359375 -6.984375 C 2.929688 -7.316406 3.582031 -7.484375 4.3125 -7.484375 C 5.050781 -7.484375 5.703125 -7.3125 6.265625 -6.96875 C 6.835938 -6.625 7.285156 -6.164062 7.609375 -5.59375 C 7.929688 -5.03125 8.09375 -4.398438 8.09375 -3.703125 C 8.09375 -2.960938 7.925781 -2.300781 7.59375 -1.71875 C 7.269531 -1.144531 6.828125 -0.691406 6.265625 -0.359375 C 5.703125 -0.0234375 5.050781 0.140625 4.3125 0.140625 Z M 4.296875 -6.5 C 3.828125 -6.5 3.382812 -6.390625 2.96875 -6.171875 C 2.5625 -5.960938 2.226562 -5.644531 1.96875 -5.21875 C 1.71875 -4.800781 1.59375 -4.28125 1.59375 -3.65625 C 1.59375 -3.144531 1.707031 -2.675781 1.9375 -2.25 C 2.164062 -1.820312 2.484375 -1.484375 2.890625 -1.234375 C 3.296875 -0.984375 3.769531 -0.859375 4.3125 -0.859375 C 4.851562 -0.859375 5.328125 -0.988281 5.734375 -1.25 C 6.148438 -1.507812 6.472656 -1.847656 6.703125 -2.265625 C 6.929688 -2.691406 7.046875 -3.144531 7.046875 -3.625 C 7.046875 -4.28125 6.910156 -4.816406 6.640625 -5.234375 C 6.367188 -5.660156 6.023438 -5.976562 5.609375 -6.1875 C 5.191406 -6.394531 4.753906 -6.5 4.296875 -6.5 Z M 4.296875 -6.5 "/></g></g></g><g fill="#42788f" fill-opacity="1"><g transform="translate(18.973717, 12.698996)"><g><path d="M 1.953125 -6.25 C 2.191406 -6.738281 2.507812 -7.066406 2.90625 -7.234375 C 3.300781 -7.398438 3.707031 -7.484375 4.125 -7.484375 C 4.289062 -7.484375 4.421875 -7.441406 4.515625 -7.359375 C 4.617188 -7.273438 4.671875 -7.148438 4.671875 -6.984375 C 4.671875 -6.828125 4.617188 -6.703125 4.515625 -6.609375 C 4.421875 -6.523438 4.289062 -6.484375 4.125 -6.484375 C 3.625 -6.484375 3.21875 -6.363281 2.90625 -6.125 C 2.59375 -5.894531 2.359375 -5.578125 2.203125 -5.171875 C 2.054688 -4.773438 1.984375 -4.328125 1.984375 -3.828125 L 1.984375 -0.515625 C 1.984375 -0.359375 1.929688 -0.234375 1.828125 -0.140625 C 1.722656 -0.046875 1.601562 0 1.46875 0 C 1.3125 0 1.179688 -0.046875 1.078125 -0.140625 C 0.972656 -0.234375 0.921875 -0.359375 0.921875 -0.515625 L 0.921875 -6.84375 C 0.921875 -7 0.976562 -7.117188 1.09375 -7.203125 C 1.21875 -7.296875 1.34375 -7.34375 1.46875 -7.34375 C 1.59375 -7.34375 1.703125 -7.296875 1.796875 -7.203125 C 1.898438 -7.117188 1.953125 -7 1.953125 -6.84375 Z M 1.953125 -6.25 "/></g></g></g><g fill="#42788f" fill-opacity="1"><g transform="translate(24.152585, 12.698996)"><g><path d="M 8.09375 -3.453125 C 8.082031 -2.765625 7.914062 -2.148438 7.59375 -1.609375 C 7.28125 -1.066406 6.847656 -0.640625 6.296875 -0.328125 C 5.742188 -0.015625 5.109375 0.140625 4.390625 0.140625 C 3.898438 0.140625 3.4375 0.046875 3 -0.140625 C 2.570312 -0.328125 2.25 -0.613281 2.03125 -1 L 2.03125 2.125 C 2.03125 2.28125 1.976562 2.398438 1.875 2.484375 C 1.769531 2.566406 1.644531 2.609375 1.5 2.609375 C 1.363281 2.609375 1.238281 2.566406 1.125 2.484375 C 1.019531 2.398438 0.96875 2.28125 0.96875 2.125 L 0.96875 -6.84375 C 0.96875 -7.175781 1.148438 -7.34375 1.515625 -7.34375 C 1.835938 -7.34375 2 -7.175781 2 -6.84375 L 2 -6.21875 C 2.25 -6.625 2.597656 -6.9375 3.046875 -7.15625 C 3.503906 -7.375 3.953125 -7.484375 4.390625 -7.484375 C 5.066406 -7.484375 5.6875 -7.328125 6.25 -7.015625 C 6.820312 -6.703125 7.273438 -6.242188 7.609375 -5.640625 C 7.953125 -5.046875 8.113281 -4.316406 8.09375 -3.453125 Z M 4.46875 -6.484375 C 4.03125 -6.484375 3.625 -6.394531 3.25 -6.21875 C 2.882812 -6.039062 2.585938 -5.78125 2.359375 -5.4375 C 2.140625 -5.101562 2.03125 -4.695312 2.03125 -4.21875 L 2.03125 -3.078125 C 2.03125 -2.648438 2.128906 -2.269531 2.328125 -1.9375 C 2.535156 -1.613281 2.8125 -1.351562 3.15625 -1.15625 C 3.507812 -0.96875 3.90625 -0.863281 4.34375 -0.84375 C 4.914062 -0.84375 5.394531 -0.957031 5.78125 -1.1875 C 6.175781 -1.425781 6.476562 -1.75 6.6875 -2.15625 C 6.90625 -2.5625 7.023438 -3 7.046875 -3.46875 C 7.046875 -4.03125 6.929688 -4.535156 6.703125 -4.984375 C 6.484375 -5.441406 6.179688 -5.804688 5.796875 -6.078125 C 5.410156 -6.347656 4.96875 -6.484375 4.46875 -6.484375 Z M 4.46875 -6.484375 "/></g></g></g><g fill="#42788f" fill-opacity="1"><g transform="translate(33.146646, 12.698996)"><g><path d="M 4.3125 0.140625 C 3.550781 0.140625 2.882812 -0.0351562 2.3125 -0.390625 C 1.738281 -0.742188 1.296875 -1.21875 0.984375 -1.8125 C 0.671875 -2.40625 0.515625 -3.0625 0.515625 -3.78125 C 0.515625 -4.476562 0.679688 -5.101562 1.015625 -5.65625 C 1.347656 -6.21875 1.796875 -6.660156 2.359375 -6.984375 C 2.929688 -7.316406 3.582031 -7.484375 4.3125 -7.484375 C 5.050781 -7.484375 5.703125 -7.3125 6.265625 -6.96875 C 6.835938 -6.625 7.285156 -6.164062 7.609375 -5.59375 C 7.929688 -5.03125 8.09375 -4.398438 8.09375 -3.703125 C 8.09375 -2.960938 7.925781 -2.300781 7.59375 -1.71875 C 7.269531 -1.144531 6.828125 -0.691406 6.265625 -0.359375 C 5.703125 -0.0234375 5.050781 0.140625 4.3125 0.140625 Z M 4.296875 -6.5 C 3.828125 -6.5 3.382812 -6.390625 2.96875 -6.171875 C 2.5625 -5.960938 2.226562 -5.644531 1.96875 -5.21875 C 1.71875 -4.800781 1.59375 -4.28125 1.59375 -3.65625 C 1.59375 -3.144531 1.707031 -2.675781 1.9375 -2.25 C 2.164062 -1.820312 2.484375 -1.484375 2.890625 -1.234375 C 3.296875 -0.984375 3.769531 -0.859375 4.3125 -0.859375 C 4.851562 -0.859375 5.328125 -0.988281 5.734375 -1.25 C 6.148438 -1.507812 6.472656 -1.847656 6.703125 -2.265625 C 6.929688 -2.691406 7.046875 -3.144531 7.046875 -3.625 C 7.046875 -4.28125 6.910156 -4.816406 6.640625 -5.234375 C 6.367188 -5.660156 6.023438 -5.976562 5.609375 -6.1875 C 5.191406 -6.394531 4.753906 -6.5 4.296875 -6.5 Z M 4.296875 -6.5 "/></g></g></g><g fill="#42788f" fill-opacity="1"><g transform="translate(41.981131, 12.698996)"><g><path d="M 1.953125 -6.25 C 2.191406 -6.738281 2.507812 -7.066406 2.90625 -7.234375 C 3.300781 -7.398438 3.707031 -7.484375 4.125 -7.484375 C 4.289062 -7.484375 4.421875 -7.441406 4.515625 -7.359375 C 4.617188 -7.273438 4.671875 -7.148438 4.671875 -6.984375 C 4.671875 -6.828125 4.617188 -6.703125 4.515625 -6.609375 C 4.421875 -6.523438 4.289062 -6.484375 4.125 -6.484375 C 3.625 -6.484375 3.21875 -6.363281 2.90625 -6.125 C 2.59375 -5.894531 2.359375 -5.578125 2.203125 -5.171875 C 2.054688 -4.773438 1.984375 -4.328125 1.984375 -3.828125 L 1.984375 -0.515625 C 1.984375 -0.359375 1.929688 -0.234375 1.828125 -0.140625 C 1.722656 -0.046875 1.601562 0 1.46875 0 C 1.3125 0 1.179688 -0.046875 1.078125 -0.140625 C 0.972656 -0.234375 0.921875 -0.359375 0.921875 -0.515625 L 0.921875 -6.84375 C 0.921875 -7 0.976562 -7.117188 1.09375 -7.203125 C 1.21875 -7.296875 1.34375 -7.34375 1.46875 -7.34375 C 1.59375 -7.34375 1.703125 -7.296875 1.796875 -7.203125 C 1.898438 -7.117188 1.953125 -7 1.953125 -6.84375 Z M 1.953125 -6.25 "/></g></g></g><g fill="#42788f" fill-opacity="1"><g transform="translate(46.869832, 12.698996)"><g><path d="M 4.296875 -7.484375 C 4.710938 -7.484375 5.132812 -7.398438 5.5625 -7.234375 C 5.988281 -7.066406 6.332031 -6.769531 6.59375 -6.34375 L 6.59375 -6.828125 C 6.59375 -6.972656 6.632812 -7.09375 6.71875 -7.1875 C 6.8125 -7.289062 6.941406 -7.34375 7.109375 -7.34375 C 7.273438 -7.34375 7.40625 -7.289062 7.5 -7.1875 C 7.601562 -7.09375 7.65625 -6.972656 7.65625 -6.828125 L 7.65625 -0.515625 C 7.65625 -0.367188 7.601562 -0.242188 7.5 -0.140625 C 7.40625 -0.046875 7.273438 0 7.109375 0 C 6.765625 0 6.59375 -0.171875 6.59375 -0.515625 L 6.59375 -1.140625 C 6.457031 -0.859375 6.257812 -0.617188 6 -0.421875 C 5.738281 -0.234375 5.453125 -0.09375 5.140625 0 C 4.828125 0.09375 4.523438 0.140625 4.234375 0.140625 C 3.535156 0.140625 2.90625 -0.0078125 2.34375 -0.3125 C 1.789062 -0.625 1.347656 -1.066406 1.015625 -1.640625 C 0.679688 -2.222656 0.515625 -2.914062 0.515625 -3.71875 C 0.515625 -4.550781 0.6875 -5.242188 1.03125 -5.796875 C 1.375 -6.359375 1.832031 -6.78125 2.40625 -7.0625 C 2.976562 -7.34375 3.609375 -7.484375 4.296875 -7.484375 Z M 4.25 -0.859375 C 4.675781 -0.878906 5.066406 -0.972656 5.421875 -1.140625 C 5.773438 -1.316406 6.054688 -1.566406 6.265625 -1.890625 C 6.484375 -2.222656 6.59375 -2.625 6.59375 -3.09375 L 6.59375 -4.234375 C 6.59375 -4.953125 6.367188 -5.5 5.921875 -5.875 C 5.484375 -6.25 4.9375 -6.453125 4.28125 -6.484375 C 3.695312 -6.492188 3.203125 -6.367188 2.796875 -6.109375 C 2.398438 -5.859375 2.097656 -5.519531 1.890625 -5.09375 C 1.679688 -4.664062 1.578125 -4.207031 1.578125 -3.71875 C 1.578125 -3.1875 1.671875 -2.738281 1.859375 -2.375 C 2.046875 -2.007812 2.28125 -1.710938 2.5625 -1.484375 C 2.84375 -1.265625 3.132812 -1.101562 3.4375 -1 C 3.75 -0.90625 4.019531 -0.859375 4.25 -0.859375 Z M 4.25 -0.859375 "/></g></g></g><g fill="#42788f" fill-opacity="1"><g transform="translate(55.80586, 12.698996)"><g><path d="M 4.171875 -7.34375 C 4.390625 -7.34375 4.535156 -7.269531 4.609375 -7.125 C 4.679688 -6.976562 4.679688 -6.828125 4.609375 -6.671875 C 4.535156 -6.523438 4.390625 -6.453125 4.171875 -6.453125 L 2.578125 -6.453125 L 2.578125 -2.515625 C 2.578125 -2.242188 2.601562 -1.976562 2.65625 -1.71875 C 2.707031 -1.457031 2.8125 -1.238281 2.96875 -1.0625 C 3.125 -0.894531 3.367188 -0.8125 3.703125 -0.8125 C 3.804688 -0.8125 3.925781 -0.828125 4.0625 -0.859375 C 4.207031 -0.898438 4.316406 -0.9375 4.390625 -0.96875 C 4.535156 -1.0625 4.671875 -1.082031 4.796875 -1.03125 C 4.921875 -0.988281 5.015625 -0.910156 5.078125 -0.796875 C 5.140625 -0.691406 5.148438 -0.570312 5.109375 -0.4375 C 5.078125 -0.300781 4.976562 -0.191406 4.8125 -0.109375 C 4.632812 -0.00390625 4.453125 0.0625 4.265625 0.09375 C 4.078125 0.125 3.890625 0.140625 3.703125 0.140625 C 3.117188 0.140625 2.671875 0.015625 2.359375 -0.234375 C 2.054688 -0.484375 1.84375 -0.8125 1.71875 -1.21875 C 1.59375 -1.625 1.53125 -2.054688 1.53125 -2.515625 L 1.53125 -6.453125 L 0.578125 -6.453125 C 0.359375 -6.453125 0.210938 -6.523438 0.140625 -6.671875 C 0.0664062 -6.828125 0.0664062 -6.976562 0.140625 -7.125 C 0.222656 -7.269531 0.367188 -7.34375 0.578125 -7.34375 L 1.53125 -7.34375 L 1.53125 -9.078125 C 1.53125 -9.242188 1.582031 -9.367188 1.6875 -9.453125 C 1.800781 -9.546875 1.925781 -9.59375 2.0625 -9.59375 C 2.195312 -9.59375 2.316406 -9.546875 2.421875 -9.453125 C 2.523438 -9.367188 2.578125 -9.242188 2.578125 -9.078125 L 2.578125 -7.34375 Z M 4.171875 -7.34375 "/></g></g></g><g clip-path="url(#72a5a4659d)"><g fill="#42788f" fill-opacity="1"><g transform="translate(61.086219, 12.698996)"><g><path d="M 8.09375 -3.71875 C 8.09375 -3.5625 8.050781 -3.410156 7.96875 -3.265625 C 7.882812 -3.117188 7.691406 -3.046875 7.390625 -3.046875 L 1.65625 -3.046875 C 1.71875 -2.648438 1.863281 -2.28125 2.09375 -1.9375 C 2.332031 -1.601562 2.640625 -1.332031 3.015625 -1.125 C 3.390625 -0.925781 3.820312 -0.828125 4.3125 -0.828125 C 4.644531 -0.828125 4.976562 -0.875 5.3125 -0.96875 C 5.65625 -1.070312 5.960938 -1.226562 6.234375 -1.4375 C 6.367188 -1.550781 6.503906 -1.601562 6.640625 -1.59375 C 6.773438 -1.59375 6.890625 -1.550781 6.984375 -1.46875 C 7.085938 -1.382812 7.140625 -1.273438 7.140625 -1.140625 C 7.148438 -1.003906 7.082031 -0.863281 6.9375 -0.71875 C 6.601562 -0.414062 6.207031 -0.191406 5.75 -0.046875 C 5.289062 0.0859375 4.828125 0.148438 4.359375 0.140625 C 3.585938 0.140625 2.921875 -0.0234375 2.359375 -0.359375 C 1.796875 -0.703125 1.359375 -1.160156 1.046875 -1.734375 C 0.734375 -2.316406 0.578125 -2.972656 0.578125 -3.703125 C 0.578125 -4.523438 0.753906 -5.21875 1.109375 -5.78125 C 1.472656 -6.34375 1.9375 -6.765625 2.5 -7.046875 C 3.070312 -7.335938 3.664062 -7.484375 4.28125 -7.484375 C 4.9375 -7.484375 5.550781 -7.347656 6.125 -7.078125 C 6.707031 -6.816406 7.175781 -6.410156 7.53125 -5.859375 C 7.894531 -5.304688 8.082031 -4.59375 8.09375 -3.71875 Z M 1.609375 -3.9375 L 7.078125 -3.9375 C 7.035156 -4.507812 6.875 -4.988281 6.59375 -5.375 C 6.3125 -5.757812 5.96875 -6.039062 5.5625 -6.21875 C 5.164062 -6.40625 4.765625 -6.5 4.359375 -6.5 C 3.898438 -6.5 3.46875 -6.40625 3.0625 -6.21875 C 2.664062 -6.039062 2.335938 -5.757812 2.078125 -5.375 C 1.816406 -4.988281 1.660156 -4.507812 1.609375 -3.9375 Z M 1.609375 -3.9375 "/></g></g></g></g></g></g></g><g clip-path="url(#3508253d7f)"><path fill="#00b2a9" d="M 17.28125 8.386719 L 7.320312 8.386719 L 7.320312 7.199219 C 7.320312 7.011719 7.46875 6.921875 7.628906 6.921875 L 11.699219 6.921875 C 11.875 6.921875 12.007812 7.070312 12.007812 7.257812 L 12.007812 7.800781 C 12.007812 7.960938 12.140625 8.09375 12.300781 8.09375 C 12.460938 8.09375 12.59375 7.960938 12.59375 7.800781 L 12.59375 7.257812 C 12.59375 6.746094 12.199219 6.335938 11.699219 6.335938 L 7.628906 6.335938 C 7.117188 6.335938 6.734375 6.71875 6.734375 7.199219 L 6.734375 8.386719 L 2.632812 8.386719 C 1.988281 8.386719 1.460938 8.914062 1.460938 9.558594 L 1.460938 18.199219 C 1.460938 18.84375 1.988281 19.371094 2.632812 19.371094 L 7.421875 19.371094 L 7.511719 18.785156 L 2.632812 18.785156 C 2.3125 18.785156 2.046875 18.523438 2.046875 18.199219 L 2.046875 11.902344 L 3.660156 11.902344 L 3.660156 12.78125 C 3.660156 12.941406 3.792969 13.074219 3.953125 13.074219 L 5.125 13.074219 C 5.285156 13.074219 5.417969 12.941406 5.417969 12.78125 L 5.417969 11.902344 L 7.320312 11.902344 C 7.480469 11.902344 7.613281 11.769531 7.613281 11.609375 C 7.613281 11.449219 7.480469 11.316406 7.320312 11.316406 L 2.046875 11.316406 L 2.046875 9.558594 C 2.046875 9.238281 2.3125 8.972656 2.632812 8.972656 L 17.28125 8.972656 C 17.601562 8.972656 17.867188 9.238281 17.867188 9.558594 L 17.867188 11.316406 L 12.59375 11.316406 C 12.433594 11.316406 12.300781 11.449219 12.300781 11.609375 C 12.300781 11.769531 12.433594 11.902344 12.59375 11.902344 L 14.496094 11.902344 L 14.496094 12.78125 C 14.496094 12.941406 14.628906 13.074219 14.789062 13.074219 L 15.960938 13.074219 C 16.121094 13.074219 16.253906 12.941406 16.253906 12.78125 L 16.253906 11.902344 L 17.867188 11.902344 L 17.867188 18.199219 C 17.867188 18.523438 17.601562 18.785156 17.28125 18.785156 L 12.433594 18.785156 L 12.519531 19.371094 L 17.28125 19.371094 C 17.925781 19.371094 18.453125 18.84375 18.453125 18.199219 L 18.453125 9.558594 C 18.453125 8.914062 17.925781 8.386719 17.28125 8.386719 Z M 4.832031 12.488281 L 4.246094 12.488281 L 4.246094 11.902344 L 4.832031 11.902344 Z M 15.667969 12.488281 L 15.082031 12.488281 L 15.082031 11.902344 L 15.667969 11.902344 Z M 15.667969 12.488281 " fill-opacity="1" fill-rule="nonzero"/></g><g clip-path="url(#8512f6817f)"><path fill="#00b2a9" d="M 10.921875 12.488281 C 11.054688 12.472656 11.15625 12.386719 11.1875 12.253906 L 11.566406 10.511719 C 11.566406 10.511719 11.566406 10.496094 11.566406 10.496094 C 11.597656 10.335938 11.554688 10.160156 11.449219 10.042969 C 11.347656 9.925781 11.203125 9.851562 11.039062 9.851562 L 8.875 9.851562 C 8.710938 9.851562 8.566406 9.925781 8.464844 10.042969 C 8.359375 10.160156 8.316406 10.335938 8.347656 10.496094 C 8.347656 10.496094 8.347656 10.511719 8.347656 10.511719 L 8.726562 12.253906 C 8.757812 12.386719 8.875 12.488281 9.019531 12.488281 L 9.0625 12.488281 L 7.46875 22.945312 C 7.453125 23.046875 7.496094 23.148438 7.570312 23.222656 L 9.796875 25.023438 C 9.855469 25.070312 9.914062 25.082031 9.988281 25.082031 C 10.058594 25.082031 10.117188 25.054688 10.175781 25.011719 L 12.34375 23.207031 C 12.417969 23.148438 12.460938 23.046875 12.445312 22.945312 Z M 8.199219 22.972656 L 11.304688 19.226562 L 11.4375 20.117188 L 8.710938 23.382812 Z M 8.945312 10.4375 L 10.980469 10.4375 L 10.675781 11.902344 L 9.269531 11.902344 Z M 10.324219 12.488281 L 11.1875 18.449219 L 8.199219 22.050781 L 9.664062 12.488281 Z M 9.988281 24.410156 L 9.179688 23.75 L 11.566406 20.894531 L 11.859375 22.871094 Z M 9.988281 24.410156 " fill-opacity="1" fill-rule="nonzero"/></g><path fill="#00b2a9" d="M 10.25 11.171875 C 10.25 11.25 10.222656 11.320312 10.164062 11.378906 C 10.105469 11.433594 10.039062 11.464844 9.957031 11.464844 C 9.875 11.464844 9.808594 11.433594 9.75 11.378906 C 9.691406 11.320312 9.664062 11.25 9.664062 11.171875 C 9.664062 11.089844 9.691406 11.019531 9.75 10.960938 C 9.808594 10.90625 9.875 10.878906 9.957031 10.878906 C 10.039062 10.878906 10.105469 10.90625 10.164062 10.960938 C 10.222656 11.019531 10.25 11.089844 10.25 11.171875 Z M 10.25 11.171875 " fill-opacity="1" fill-rule="nonzero"/><g clip-path="url(#1b09a65f53)"><g transform="matrix(1, 0, 0, 1, 76, 19)"><g clip-path="url(#c252465766)"><g clip-path="url(#61877e9838)"><g fill="#00b2a9" fill-opacity="1"><g transform="translate(0.704046, 9.061583)"><g><path d="M 0.640625 -0.953125 C 0.816406 -0.953125 0.957031 -0.898438 1.0625 -0.796875 C 1.164062 -0.703125 1.21875 -0.578125 1.21875 -0.421875 C 1.21875 -0.273438 1.164062 -0.148438 1.0625 -0.046875 C 0.957031 0.046875 0.816406 0.09375 0.640625 0.09375 C 0.472656 0.09375 0.332031 0.046875 0.21875 -0.046875 C 0.101562 -0.148438 0.046875 -0.273438 0.046875 -0.421875 C 0.046875 -0.578125 0.101562 -0.703125 0.21875 -0.796875 C 0.332031 -0.898438 0.472656 -0.953125 0.640625 -0.953125 Z M 0.640625 -0.953125 "/></g></g></g></g><g fill="#00b2a9" fill-opacity="1"><g transform="translate(1.963144, 9.061583)"><g><path d="M 2.75 -4.640625 C 3.207031 -4.640625 3.59375 -4.539062 3.90625 -4.34375 C 4.226562 -4.15625 4.472656 -3.882812 4.640625 -3.53125 C 4.816406 -3.1875 4.90625 -2.785156 4.90625 -2.328125 C 4.90625 -1.867188 4.828125 -1.457031 4.671875 -1.09375 C 4.515625 -0.726562 4.285156 -0.4375 3.984375 -0.21875 C 3.691406 -0.0078125 3.34375 0.09375 2.9375 0.09375 C 2.65625 0.09375 2.390625 0.046875 2.140625 -0.046875 C 1.890625 -0.140625 1.660156 -0.28125 1.453125 -0.46875 C 1.453125 -0.15625 1.289062 0 0.96875 0 C 0.800781 0 0.671875 -0.0351562 0.578125 -0.109375 C 0.492188 -0.191406 0.453125 -0.304688 0.453125 -0.453125 L 0.453125 -5.328125 C 0.453125 -5.484375 0.503906 -5.597656 0.609375 -5.671875 C 0.710938 -5.742188 0.828125 -5.78125 0.953125 -5.78125 C 1.078125 -5.78125 1.191406 -5.742188 1.296875 -5.671875 C 1.410156 -5.597656 1.46875 -5.484375 1.46875 -5.328125 L 1.453125 -4.09375 C 1.648438 -4.28125 1.863281 -4.414062 2.09375 -4.5 C 2.320312 -4.59375 2.539062 -4.640625 2.75 -4.640625 Z M 2.71875 -0.828125 C 3.070312 -0.828125 3.351562 -0.960938 3.5625 -1.234375 C 3.78125 -1.503906 3.890625 -1.863281 3.890625 -2.3125 C 3.890625 -2.738281 3.773438 -3.082031 3.546875 -3.34375 C 3.316406 -3.601562 3.015625 -3.734375 2.640625 -3.734375 C 2.398438 -3.734375 2.164062 -3.664062 1.9375 -3.53125 C 1.71875 -3.394531 1.554688 -3.207031 1.453125 -2.96875 L 1.453125 -1.625 C 1.535156 -1.351562 1.691406 -1.148438 1.921875 -1.015625 C 2.160156 -0.890625 2.425781 -0.828125 2.71875 -0.828125 Z M 2.71875 -0.828125 "/></g></g></g><g clip-path="url(#5c1f1fca73)"><g fill="#00b2a9" fill-opacity="1"><g transform="translate(7.481726, 9.061583)"><g><path d="M 4.171875 -5.78125 C 4.296875 -5.78125 4.410156 -5.742188 4.515625 -5.671875 C 4.628906 -5.597656 4.6875 -5.484375 4.6875 -5.328125 L 4.6875 -0.453125 C 4.6875 -0.148438 4.515625 0 4.171875 0 C 3.859375 0 3.695312 -0.140625 3.6875 -0.421875 C 3.488281 -0.253906 3.269531 -0.128906 3.03125 -0.046875 C 2.800781 0.0351562 2.578125 0.078125 2.359375 0.078125 C 1.910156 0.078125 1.523438 -0.0195312 1.203125 -0.21875 C 0.878906 -0.425781 0.628906 -0.710938 0.453125 -1.078125 C 0.285156 -1.441406 0.203125 -1.859375 0.203125 -2.328125 C 0.203125 -2.773438 0.289062 -3.171875 0.46875 -3.515625 C 0.65625 -3.867188 0.914062 -4.144531 1.25 -4.34375 C 1.582031 -4.539062 1.960938 -4.640625 2.390625 -4.640625 C 2.585938 -4.640625 2.800781 -4.597656 3.03125 -4.515625 C 3.257812 -4.441406 3.472656 -4.328125 3.671875 -4.171875 L 3.671875 -5.328125 C 3.671875 -5.484375 3.722656 -5.597656 3.828125 -5.671875 C 3.929688 -5.742188 4.046875 -5.78125 4.171875 -5.78125 Z M 2.390625 -0.828125 C 2.679688 -0.828125 2.945312 -0.890625 3.1875 -1.015625 C 3.4375 -1.148438 3.601562 -1.347656 3.6875 -1.609375 L 3.671875 -2.984375 C 3.566406 -3.234375 3.398438 -3.421875 3.171875 -3.546875 C 2.941406 -3.671875 2.707031 -3.734375 2.46875 -3.734375 C 2.09375 -3.734375 1.789062 -3.597656 1.5625 -3.328125 C 1.332031 -3.054688 1.21875 -2.71875 1.21875 -2.3125 C 1.21875 -1.875 1.320312 -1.515625 1.53125 -1.234375 C 1.75 -0.960938 2.035156 -0.828125 2.390625 -0.828125 Z M 2.390625 -0.828125 "/></g></g></g></g></g></g></g></svg>