<svg xmlns="http://www.w3.org/2000/svg" xmlns:xlink="http://www.w3.org/1999/xlink" width="140" zoomAndPan="magnify" viewBox="0 0 104.88 41.25" height="55" preserveAspectRatio="xMidYMid meet" version="1.0"><defs><g/><clipPath id="affa713a4d"><path d="M 20 10 L 103.882812 10 L 103.882812 31 L 20 31 Z M 20 10 " clip-rule="nonzero"/></clipPath><clipPath id="d9532e8e20"><path d="M 74 6 L 83.882812 6 L 83.882812 16 L 74 16 Z M 74 6 " clip-rule="nonzero"/></clipPath><clipPath id="60cabfe2b5"><rect x="0" width="84" y="0" height="21"/></clipPath><clipPath id="8c55b938f6"><path d="M 0.878906 10.574219 L 20.765625 10.574219 L 20.765625 26 L 0.878906 26 Z M 0.878906 10.574219 " clip-rule="nonzero"/></clipPath><clipPath id="c02b96233b"><path d="M 7 14 L 14 14 L 14 32.671875 L 7 32.671875 Z M 7 14 " clip-rule="nonzero"/></clipPath><clipPath id="e562a733f7"><path d="M 89 26 L 103.882812 26 L 103.882812 40 L 89 40 Z M 89 26 " clip-rule="nonzero"/></clipPath><clipPath id="9003628037"><path d="M 9 3 L 14.882812 3 L 14.882812 11 L 9 11 Z M 9 3 " clip-rule="nonzero"/></clipPath><clipPath id="cd30168499"><rect x="0" width="15" y="0" height="14"/></clipPath></defs><g clip-path="url(#affa713a4d)"><g transform="matrix(1, 0, 0, 1, 20, 10)"><g clip-path="url(#60cabfe2b5)"><g fill="#42788f" fill-opacity="1"><g transform="translate(1.022097, 15.407302)"><g><path d="M 6.4375 -11.25 C 7.226562 -11.25 7.96875 -11.109375 8.65625 -10.828125 C 9.34375 -10.546875 9.96875 -10.109375 10.53125 -9.515625 C 10.65625 -9.367188 10.707031 -9.222656 10.6875 -9.078125 C 10.664062 -8.929688 10.59375 -8.804688 10.46875 -8.703125 C 10.34375 -8.609375 10.203125 -8.554688 10.046875 -8.546875 C 9.898438 -8.546875 9.765625 -8.609375 9.640625 -8.734375 C 9.179688 -9.234375 8.679688 -9.578125 8.140625 -9.765625 C 7.609375 -9.960938 7.050781 -10.0625 6.46875 -10.0625 C 6.007812 -10.0625 5.519531 -9.988281 5 -9.84375 C 4.476562 -9.707031 3.988281 -9.476562 3.53125 -9.15625 C 3.070312 -8.832031 2.695312 -8.382812 2.40625 -7.8125 C 2.113281 -7.25 1.96875 -6.535156 1.96875 -5.671875 C 1.96875 -4.804688 2.164062 -4.019531 2.5625 -3.3125 C 2.96875 -2.613281 3.503906 -2.054688 4.171875 -1.640625 C 4.847656 -1.234375 5.582031 -1.03125 6.375 -1.03125 C 7.039062 -1.03125 7.671875 -1.171875 8.265625 -1.453125 C 8.867188 -1.742188 9.375 -2.15625 9.78125 -2.6875 C 9.875 -2.820312 10 -2.894531 10.15625 -2.90625 C 10.3125 -2.914062 10.457031 -2.875 10.59375 -2.78125 C 10.726562 -2.695312 10.820312 -2.582031 10.875 -2.4375 C 10.925781 -2.300781 10.894531 -2.148438 10.78125 -1.984375 C 10.457031 -1.535156 10.050781 -1.144531 9.5625 -0.8125 C 9.082031 -0.488281 8.5625 -0.242188 8 -0.078125 C 7.445312 0.0859375 6.890625 0.171875 6.328125 0.171875 C 5.585938 0.171875 4.878906 0.0234375 4.203125 -0.265625 C 3.535156 -0.554688 2.941406 -0.960938 2.421875 -1.484375 C 1.898438 -2.003906 1.488281 -2.625 1.1875 -3.34375 C 0.882812 -4.0625 0.734375 -4.84375 0.734375 -5.6875 C 0.734375 -6.6875 0.914062 -7.535156 1.28125 -8.234375 C 1.644531 -8.941406 2.117188 -9.515625 2.703125 -9.953125 C 3.285156 -10.398438 3.90625 -10.726562 4.5625 -10.9375 C 5.226562 -11.144531 5.851562 -11.25 6.4375 -11.25 Z M 6.4375 -11.25 "/></g></g></g><g fill="#42788f" fill-opacity="1"><g transform="translate(12.628464, 15.407302)"><g><path d="M 5.171875 0.171875 C 4.253906 0.171875 3.453125 -0.0351562 2.765625 -0.453125 C 2.078125 -0.878906 1.546875 -1.445312 1.171875 -2.15625 C 0.804688 -2.875 0.625 -3.664062 0.625 -4.53125 C 0.625 -5.375 0.820312 -6.128906 1.21875 -6.796875 C 1.613281 -7.460938 2.148438 -7.992188 2.828125 -8.390625 C 3.515625 -8.785156 4.296875 -8.984375 5.171875 -8.984375 C 6.054688 -8.984375 6.835938 -8.773438 7.515625 -8.359375 C 8.203125 -7.953125 8.738281 -7.40625 9.125 -6.71875 C 9.519531 -6.03125 9.71875 -5.269531 9.71875 -4.4375 C 9.71875 -3.550781 9.519531 -2.757812 9.125 -2.0625 C 8.726562 -1.375 8.191406 -0.828125 7.515625 -0.421875 C 6.835938 -0.0234375 6.054688 0.171875 5.171875 0.171875 Z M 5.15625 -7.796875 C 4.59375 -7.796875 4.066406 -7.664062 3.578125 -7.40625 C 3.085938 -7.15625 2.6875 -6.773438 2.375 -6.265625 C 2.070312 -5.765625 1.921875 -5.140625 1.921875 -4.390625 C 1.921875 -3.773438 2.054688 -3.210938 2.328125 -2.703125 C 2.597656 -2.191406 2.972656 -1.785156 3.453125 -1.484375 C 3.941406 -1.179688 4.515625 -1.03125 5.171875 -1.03125 C 5.816406 -1.03125 6.382812 -1.1875 6.875 -1.5 C 7.375 -1.8125 7.757812 -2.21875 8.03125 -2.71875 C 8.300781 -3.226562 8.4375 -3.769531 8.4375 -4.34375 C 8.4375 -5.132812 8.273438 -5.78125 7.953125 -6.28125 C 7.640625 -6.789062 7.226562 -7.171875 6.71875 -7.421875 C 6.21875 -7.671875 5.695312 -7.796875 5.15625 -7.796875 Z M 5.15625 -7.796875 "/></g></g></g><g fill="#42788f" fill-opacity="1"><g transform="translate(23.225587, 15.407302)"><g><path d="M 2.34375 -7.5 C 2.625 -8.082031 3 -8.472656 3.46875 -8.671875 C 3.945312 -8.878906 4.4375 -8.984375 4.9375 -8.984375 C 5.132812 -8.984375 5.296875 -8.929688 5.421875 -8.828125 C 5.546875 -8.722656 5.609375 -8.570312 5.609375 -8.375 C 5.609375 -8.1875 5.546875 -8.039062 5.421875 -7.9375 C 5.296875 -7.832031 5.132812 -7.78125 4.9375 -7.78125 C 4.351562 -7.78125 3.867188 -7.632812 3.484375 -7.34375 C 3.109375 -7.0625 2.832031 -6.679688 2.65625 -6.203125 C 2.476562 -5.722656 2.390625 -5.1875 2.390625 -4.59375 L 2.390625 -0.609375 C 2.390625 -0.421875 2.320312 -0.269531 2.1875 -0.15625 C 2.0625 -0.0507812 1.921875 0 1.765625 0 C 1.578125 0 1.421875 -0.0507812 1.296875 -0.15625 C 1.171875 -0.269531 1.109375 -0.421875 1.109375 -0.609375 L 1.109375 -8.203125 C 1.109375 -8.398438 1.175781 -8.550781 1.3125 -8.65625 C 1.457031 -8.757812 1.609375 -8.8125 1.765625 -8.8125 C 1.910156 -8.8125 2.039062 -8.757812 2.15625 -8.65625 C 2.28125 -8.550781 2.34375 -8.398438 2.34375 -8.203125 Z M 2.34375 -7.5 "/></g></g></g><g fill="#42788f" fill-opacity="1"><g transform="translate(29.437732, 15.407302)"><g><path d="M 9.71875 -4.140625 C 9.6875 -3.316406 9.484375 -2.578125 9.109375 -1.921875 C 8.734375 -1.273438 8.210938 -0.765625 7.546875 -0.390625 C 6.890625 -0.015625 6.125 0.171875 5.25 0.171875 C 4.675781 0.171875 4.128906 0.0625 3.609375 -0.15625 C 3.097656 -0.382812 2.707031 -0.734375 2.4375 -1.203125 L 2.4375 2.546875 C 2.4375 2.742188 2.367188 2.890625 2.234375 2.984375 C 2.109375 3.085938 1.960938 3.140625 1.796875 3.140625 C 1.628906 3.140625 1.484375 3.085938 1.359375 2.984375 C 1.234375 2.890625 1.171875 2.742188 1.171875 2.546875 L 1.171875 -8.203125 C 1.171875 -8.609375 1.382812 -8.8125 1.8125 -8.8125 C 2.207031 -8.8125 2.40625 -8.609375 2.40625 -8.203125 L 2.40625 -7.453125 C 2.707031 -7.941406 3.125 -8.316406 3.65625 -8.578125 C 4.195312 -8.847656 4.726562 -8.984375 5.25 -8.984375 C 6.0625 -8.984375 6.8125 -8.789062 7.5 -8.40625 C 8.1875 -8.03125 8.734375 -7.484375 9.140625 -6.765625 C 9.546875 -6.046875 9.738281 -5.171875 9.71875 -4.140625 Z M 5.359375 -7.78125 C 4.835938 -7.78125 4.351562 -7.671875 3.90625 -7.453125 C 3.457031 -7.242188 3.097656 -6.9375 2.828125 -6.53125 C 2.566406 -6.125 2.4375 -5.632812 2.4375 -5.0625 L 2.4375 -3.6875 C 2.4375 -3.175781 2.554688 -2.722656 2.796875 -2.328125 C 3.046875 -1.929688 3.378906 -1.617188 3.796875 -1.390625 C 4.210938 -1.160156 4.679688 -1.035156 5.203125 -1.015625 C 5.890625 -1.015625 6.46875 -1.15625 6.9375 -1.4375 C 7.40625 -1.71875 7.765625 -2.097656 8.015625 -2.578125 C 8.273438 -3.066406 8.414062 -3.59375 8.4375 -4.15625 C 8.445312 -4.832031 8.316406 -5.441406 8.046875 -5.984375 C 7.773438 -6.535156 7.40625 -6.972656 6.9375 -7.296875 C 6.476562 -7.617188 5.953125 -7.78125 5.359375 -7.78125 Z M 5.359375 -7.78125 "/></g></g></g><g fill="#42788f" fill-opacity="1"><g transform="translate(40.226269, 15.407302)"><g><path d="M 5.171875 0.171875 C 4.253906 0.171875 3.453125 -0.0351562 2.765625 -0.453125 C 2.078125 -0.878906 1.546875 -1.445312 1.171875 -2.15625 C 0.804688 -2.875 0.625 -3.664062 0.625 -4.53125 C 0.625 -5.375 0.820312 -6.128906 1.21875 -6.796875 C 1.613281 -7.460938 2.148438 -7.992188 2.828125 -8.390625 C 3.515625 -8.785156 4.296875 -8.984375 5.171875 -8.984375 C 6.054688 -8.984375 6.835938 -8.773438 7.515625 -8.359375 C 8.203125 -7.953125 8.738281 -7.40625 9.125 -6.71875 C 9.519531 -6.03125 9.71875 -5.269531 9.71875 -4.4375 C 9.71875 -3.550781 9.519531 -2.757812 9.125 -2.0625 C 8.726562 -1.375 8.191406 -0.828125 7.515625 -0.421875 C 6.835938 -0.0234375 6.054688 0.171875 5.171875 0.171875 Z M 5.15625 -7.796875 C 4.59375 -7.796875 4.066406 -7.664062 3.578125 -7.40625 C 3.085938 -7.15625 2.6875 -6.773438 2.375 -6.265625 C 2.070312 -5.765625 1.921875 -5.140625 1.921875 -4.390625 C 1.921875 -3.773438 2.054688 -3.210938 2.328125 -2.703125 C 2.597656 -2.191406 2.972656 -1.785156 3.453125 -1.484375 C 3.941406 -1.179688 4.515625 -1.03125 5.171875 -1.03125 C 5.816406 -1.03125 6.382812 -1.1875 6.875 -1.5 C 7.375 -1.8125 7.757812 -2.21875 8.03125 -2.71875 C 8.300781 -3.226562 8.4375 -3.769531 8.4375 -4.34375 C 8.4375 -5.132812 8.273438 -5.78125 7.953125 -6.28125 C 7.640625 -6.789062 7.226562 -7.171875 6.71875 -7.421875 C 6.21875 -7.671875 5.695312 -7.796875 5.15625 -7.796875 Z M 5.15625 -7.796875 "/></g></g></g><g fill="#42788f" fill-opacity="1"><g transform="translate(50.823392, 15.407302)"><g><path d="M 2.34375 -7.5 C 2.625 -8.082031 3 -8.472656 3.46875 -8.671875 C 3.945312 -8.878906 4.4375 -8.984375 4.9375 -8.984375 C 5.132812 -8.984375 5.296875 -8.929688 5.421875 -8.828125 C 5.546875 -8.722656 5.609375 -8.570312 5.609375 -8.375 C 5.609375 -8.1875 5.546875 -8.039062 5.421875 -7.9375 C 5.296875 -7.832031 5.132812 -7.78125 4.9375 -7.78125 C 4.351562 -7.78125 3.867188 -7.632812 3.484375 -7.34375 C 3.109375 -7.0625 2.832031 -6.679688 2.65625 -6.203125 C 2.476562 -5.722656 2.390625 -5.1875 2.390625 -4.59375 L 2.390625 -0.609375 C 2.390625 -0.421875 2.320312 -0.269531 2.1875 -0.15625 C 2.0625 -0.0507812 1.921875 0 1.765625 0 C 1.578125 0 1.421875 -0.0507812 1.296875 -0.15625 C 1.171875 -0.269531 1.109375 -0.421875 1.109375 -0.609375 L 1.109375 -8.203125 C 1.109375 -8.398438 1.175781 -8.550781 1.3125 -8.65625 C 1.457031 -8.757812 1.609375 -8.8125 1.765625 -8.8125 C 1.910156 -8.8125 2.039062 -8.757812 2.15625 -8.65625 C 2.28125 -8.550781 2.34375 -8.398438 2.34375 -8.203125 Z M 2.34375 -7.5 "/></g></g></g><g fill="#42788f" fill-opacity="1"><g transform="translate(56.687476, 15.407302)"><g><path d="M 5.15625 -8.984375 C 5.65625 -8.984375 6.160156 -8.878906 6.671875 -8.671875 C 7.179688 -8.472656 7.59375 -8.117188 7.90625 -7.609375 L 7.90625 -8.1875 C 7.90625 -8.363281 7.957031 -8.507812 8.0625 -8.625 C 8.175781 -8.75 8.332031 -8.8125 8.53125 -8.8125 C 8.726562 -8.8125 8.882812 -8.75 9 -8.625 C 9.113281 -8.507812 9.171875 -8.363281 9.171875 -8.1875 L 9.171875 -0.625 C 9.171875 -0.4375 9.113281 -0.285156 9 -0.171875 C 8.882812 -0.0546875 8.726562 0 8.53125 0 C 8.113281 0 7.90625 -0.207031 7.90625 -0.625 L 7.90625 -1.375 C 7.738281 -1.039062 7.5 -0.753906 7.1875 -0.515625 C 6.875 -0.285156 6.53125 -0.113281 6.15625 0 C 5.789062 0.113281 5.429688 0.171875 5.078125 0.171875 C 4.242188 0.171875 3.488281 -0.0078125 2.8125 -0.375 C 2.144531 -0.75 1.613281 -1.28125 1.21875 -1.96875 C 0.820312 -2.664062 0.625 -3.492188 0.625 -4.453125 C 0.625 -5.453125 0.828125 -6.285156 1.234375 -6.953125 C 1.648438 -7.617188 2.203125 -8.125 2.890625 -8.46875 C 3.578125 -8.8125 4.332031 -8.984375 5.15625 -8.984375 Z M 5.09375 -1.03125 C 5.601562 -1.050781 6.070312 -1.164062 6.5 -1.375 C 6.925781 -1.582031 7.265625 -1.882812 7.515625 -2.28125 C 7.773438 -2.675781 7.90625 -3.148438 7.90625 -3.703125 L 7.90625 -5.078125 C 7.90625 -5.941406 7.640625 -6.597656 7.109375 -7.046875 C 6.578125 -7.503906 5.921875 -7.75 5.140625 -7.78125 C 4.441406 -7.789062 3.847656 -7.640625 3.359375 -7.328125 C 2.878906 -7.023438 2.515625 -6.617188 2.265625 -6.109375 C 2.015625 -5.597656 1.890625 -5.046875 1.890625 -4.453125 C 1.890625 -3.816406 2 -3.28125 2.21875 -2.84375 C 2.445312 -2.40625 2.726562 -2.050781 3.0625 -1.78125 C 3.40625 -1.519531 3.757812 -1.328125 4.125 -1.203125 C 4.5 -1.085938 4.820312 -1.03125 5.09375 -1.03125 Z M 5.09375 -1.03125 "/></g></g></g><g fill="#42788f" fill-opacity="1"><g transform="translate(67.406401, 15.407302)"><g><path d="M 5 -8.8125 C 5.257812 -8.8125 5.429688 -8.722656 5.515625 -8.546875 C 5.609375 -8.367188 5.609375 -8.191406 5.515625 -8.015625 C 5.429688 -7.835938 5.257812 -7.75 5 -7.75 L 3.09375 -7.75 L 3.09375 -3.015625 C 3.09375 -2.691406 3.117188 -2.367188 3.171875 -2.046875 C 3.234375 -1.734375 3.359375 -1.472656 3.546875 -1.265625 C 3.742188 -1.066406 4.039062 -0.96875 4.4375 -0.96875 C 4.5625 -0.96875 4.707031 -0.988281 4.875 -1.03125 C 5.050781 -1.070312 5.175781 -1.117188 5.25 -1.171875 C 5.4375 -1.273438 5.601562 -1.300781 5.75 -1.25 C 5.894531 -1.195312 6.003906 -1.101562 6.078125 -0.96875 C 6.160156 -0.832031 6.179688 -0.679688 6.140625 -0.515625 C 6.097656 -0.359375 5.976562 -0.226562 5.78125 -0.125 C 5.5625 -0.0078125 5.335938 0.0664062 5.109375 0.109375 C 4.890625 0.148438 4.664062 0.171875 4.4375 0.171875 C 3.738281 0.171875 3.203125 0.0195312 2.828125 -0.28125 C 2.460938 -0.582031 2.207031 -0.972656 2.0625 -1.453125 C 1.914062 -1.941406 1.84375 -2.460938 1.84375 -3.015625 L 1.84375 -7.75 L 0.703125 -7.75 C 0.429688 -7.75 0.25 -7.835938 0.15625 -8.015625 C 0.0703125 -8.191406 0.078125 -8.367188 0.171875 -8.546875 C 0.265625 -8.722656 0.441406 -8.8125 0.703125 -8.8125 L 1.84375 -8.8125 L 1.84375 -10.875 C 1.84375 -11.082031 1.90625 -11.238281 2.03125 -11.34375 C 2.164062 -11.445312 2.3125 -11.5 2.46875 -11.5 C 2.632812 -11.5 2.78125 -11.445312 2.90625 -11.34375 C 3.03125 -11.238281 3.09375 -11.082031 3.09375 -10.875 L 3.09375 -8.8125 Z M 5 -8.8125 "/></g></g></g><g clip-path="url(#d9532e8e20)"><g fill="#42788f" fill-opacity="1"><g transform="translate(73.740287, 15.407302)"><g><path d="M 9.71875 -4.453125 C 9.71875 -4.265625 9.664062 -4.082031 9.5625 -3.90625 C 9.457031 -3.738281 9.222656 -3.65625 8.859375 -3.65625 L 1.984375 -3.65625 C 2.066406 -3.175781 2.242188 -2.734375 2.515625 -2.328125 C 2.796875 -1.921875 3.160156 -1.59375 3.609375 -1.34375 C 4.066406 -1.101562 4.585938 -0.984375 5.171875 -0.984375 C 5.578125 -0.984375 5.976562 -1.039062 6.375 -1.15625 C 6.78125 -1.28125 7.148438 -1.46875 7.484375 -1.71875 C 7.640625 -1.863281 7.800781 -1.929688 7.96875 -1.921875 C 8.132812 -1.921875 8.273438 -1.867188 8.390625 -1.765625 C 8.503906 -1.671875 8.5625 -1.539062 8.5625 -1.375 C 8.570312 -1.207031 8.488281 -1.039062 8.3125 -0.875 C 7.925781 -0.5 7.457031 -0.226562 6.90625 -0.0625 C 6.351562 0.101562 5.789062 0.179688 5.21875 0.171875 C 4.300781 0.171875 3.503906 -0.03125 2.828125 -0.4375 C 2.148438 -0.84375 1.625 -1.394531 1.25 -2.09375 C 0.882812 -2.789062 0.703125 -3.570312 0.703125 -4.4375 C 0.703125 -5.425781 0.914062 -6.253906 1.34375 -6.921875 C 1.769531 -7.597656 2.320312 -8.109375 3 -8.453125 C 3.675781 -8.804688 4.390625 -8.984375 5.140625 -8.984375 C 5.921875 -8.984375 6.65625 -8.820312 7.34375 -8.5 C 8.039062 -8.1875 8.601562 -7.695312 9.03125 -7.03125 C 9.46875 -6.375 9.695312 -5.515625 9.71875 -4.453125 Z M 1.9375 -4.71875 L 8.5 -4.71875 C 8.4375 -5.414062 8.234375 -5.992188 7.890625 -6.453125 C 7.554688 -6.910156 7.148438 -7.25 6.671875 -7.46875 C 6.191406 -7.6875 5.707031 -7.796875 5.21875 -7.796875 C 4.675781 -7.796875 4.160156 -7.6875 3.671875 -7.46875 C 3.191406 -7.25 2.796875 -6.910156 2.484375 -6.453125 C 2.171875 -5.992188 1.988281 -5.414062 1.9375 -4.71875 Z M 1.9375 -4.71875 "/></g></g></g></g></g></g></g><g clip-path="url(#8c55b938f6)"><path fill="#00b2a9" d="M 19.617188 13 L 7.828125 13 L 7.828125 11.59375 C 7.828125 11.371094 8 11.265625 8.191406 11.265625 L 13.011719 11.265625 C 13.21875 11.265625 13.375 11.4375 13.375 11.664062 L 13.375 12.304688 C 13.375 12.496094 13.53125 12.652344 13.722656 12.652344 C 13.914062 12.652344 14.070312 12.496094 14.070312 12.304688 L 14.070312 11.664062 C 14.070312 11.058594 13.601562 10.574219 13.011719 10.574219 L 8.191406 10.574219 C 7.585938 10.574219 7.132812 11.023438 7.132812 11.59375 L 7.132812 13 L 2.28125 13 C 1.515625 13 0.894531 13.625 0.894531 14.386719 L 0.894531 24.613281 C 0.894531 25.378906 1.515625 26 2.28125 26 L 7.949219 26 L 8.054688 25.308594 L 2.28125 25.308594 C 1.898438 25.308594 1.585938 24.996094 1.585938 24.613281 L 1.585938 17.160156 L 3.492188 17.160156 L 3.492188 18.199219 C 3.492188 18.390625 3.648438 18.546875 3.839844 18.546875 L 5.226562 18.546875 C 5.417969 18.546875 5.574219 18.390625 5.574219 18.199219 L 5.574219 17.160156 L 7.828125 17.160156 C 8.019531 17.160156 8.175781 17.003906 8.175781 16.8125 C 8.175781 16.621094 8.019531 16.464844 7.828125 16.464844 L 1.585938 16.464844 L 1.585938 14.386719 C 1.585938 14.003906 1.898438 13.691406 2.28125 13.691406 L 19.617188 13.691406 C 19.996094 13.691406 20.308594 14.003906 20.308594 14.386719 L 20.308594 16.464844 L 14.070312 16.464844 C 13.878906 16.464844 13.722656 16.621094 13.722656 16.8125 C 13.722656 17.003906 13.878906 17.160156 14.070312 17.160156 L 16.324219 17.160156 L 16.324219 18.199219 C 16.324219 18.390625 16.480469 18.546875 16.667969 18.546875 L 18.054688 18.546875 C 18.246094 18.546875 18.402344 18.390625 18.402344 18.199219 L 18.402344 17.160156 L 20.308594 17.160156 L 20.308594 24.613281 C 20.308594 24.996094 19.996094 25.308594 19.617188 25.308594 L 13.878906 25.308594 L 13.980469 26 L 19.617188 26 C 20.378906 26 21.003906 25.378906 21.003906 24.613281 L 21.003906 14.386719 C 21.003906 13.625 20.378906 13 19.617188 13 Z M 4.878906 17.855469 L 4.1875 17.855469 L 4.1875 17.160156 L 4.878906 17.160156 Z M 17.710938 17.855469 L 17.015625 17.855469 L 17.015625 17.160156 L 17.710938 17.160156 Z M 17.710938 17.855469 " fill-opacity="1" fill-rule="nonzero"/></g><g clip-path="url(#c02b96233b)"><path fill="#00b2a9" d="M 12.09375 17.855469 C 12.25 17.835938 12.371094 17.730469 12.40625 17.578125 L 12.855469 15.511719 C 12.855469 15.511719 12.855469 15.496094 12.855469 15.496094 C 12.890625 15.304688 12.839844 15.097656 12.714844 14.957031 C 12.59375 14.820312 12.421875 14.734375 12.230469 14.734375 L 9.664062 14.734375 C 9.476562 14.734375 9.300781 14.820312 9.179688 14.957031 C 9.058594 15.097656 9.007812 15.304688 9.042969 15.496094 C 9.042969 15.496094 9.042969 15.511719 9.042969 15.511719 L 9.492188 17.578125 C 9.527344 17.730469 9.664062 17.855469 9.839844 17.855469 L 9.890625 17.855469 L 8 30.230469 C 7.984375 30.351562 8.035156 30.472656 8.121094 30.5625 L 10.757812 32.691406 C 10.828125 32.746094 10.894531 32.761719 10.984375 32.761719 C 11.070312 32.761719 11.140625 32.726562 11.207031 32.675781 L 13.773438 30.542969 C 13.859375 30.472656 13.914062 30.351562 13.894531 30.230469 Z M 8.867188 30.265625 L 12.542969 25.828125 L 12.699219 26.886719 L 9.476562 30.75 Z M 9.753906 15.425781 L 12.160156 15.425781 L 11.796875 17.160156 L 10.132812 17.160156 Z M 11.382812 17.855469 L 12.40625 24.910156 L 8.867188 29.175781 L 10.601562 17.855469 Z M 10.984375 31.964844 L 10.03125 31.183594 L 12.855469 27.804688 L 13.203125 30.144531 Z M 10.984375 31.964844 " fill-opacity="1" fill-rule="nonzero"/></g><path fill="#00b2a9" d="M 11.296875 16.292969 C 11.296875 16.390625 11.261719 16.472656 11.195312 16.539062 C 11.125 16.605469 11.042969 16.640625 10.949219 16.640625 C 10.851562 16.640625 10.769531 16.605469 10.703125 16.539062 C 10.636719 16.472656 10.601562 16.390625 10.601562 16.292969 C 10.601562 16.199219 10.636719 16.117188 10.703125 16.046875 C 10.769531 15.980469 10.851562 15.945312 10.949219 15.945312 C 11.042969 15.945312 11.125 15.980469 11.195312 16.046875 C 11.261719 16.117188 11.296875 16.199219 11.296875 16.292969 Z M 11.296875 16.292969 " fill-opacity="1" fill-rule="nonzero"/><g clip-path="url(#e562a733f7)"><g transform="matrix(1, 0, 0, 1, 89, 26)"><g clip-path="url(#cd30168499)"><g fill="#00b2a9" fill-opacity="1"><g transform="translate(0.978467, 10.294888)"><g><path d="M 0.765625 -1.125 C 0.960938 -1.125 1.125 -1.066406 1.25 -0.953125 C 1.375 -0.835938 1.4375 -0.6875 1.4375 -0.5 C 1.4375 -0.332031 1.375 -0.1875 1.25 -0.0625 C 1.125 0.0507812 0.960938 0.109375 0.765625 0.109375 C 0.566406 0.109375 0.398438 0.0507812 0.265625 -0.0625 C 0.128906 -0.1875 0.0625 -0.332031 0.0625 -0.5 C 0.0625 -0.6875 0.128906 -0.835938 0.265625 -0.953125 C 0.398438 -1.066406 0.566406 -1.125 0.765625 -1.125 Z M 0.765625 -1.125 "/></g></g></g><g fill="#00b2a9" fill-opacity="1"><g transform="translate(2.469274, 10.294888)"><g><path d="M 3.265625 -5.484375 C 3.804688 -5.484375 4.265625 -5.367188 4.640625 -5.140625 C 5.015625 -4.910156 5.300781 -4.585938 5.5 -4.171875 C 5.707031 -3.765625 5.8125 -3.289062 5.8125 -2.75 C 5.8125 -2.21875 5.71875 -1.734375 5.53125 -1.296875 C 5.34375 -0.859375 5.070312 -0.515625 4.71875 -0.265625 C 4.375 -0.015625 3.957031 0.109375 3.46875 0.109375 C 3.144531 0.109375 2.832031 0.0546875 2.53125 -0.046875 C 2.226562 -0.160156 1.957031 -0.328125 1.71875 -0.546875 C 1.71875 -0.179688 1.523438 0 1.140625 0 C 0.953125 0 0.800781 -0.046875 0.6875 -0.140625 C 0.582031 -0.234375 0.53125 -0.367188 0.53125 -0.546875 L 0.53125 -6.3125 C 0.53125 -6.5 0.59375 -6.632812 0.71875 -6.71875 C 0.84375 -6.800781 0.976562 -6.84375 1.125 -6.84375 C 1.28125 -6.84375 1.421875 -6.800781 1.546875 -6.71875 C 1.671875 -6.632812 1.734375 -6.5 1.734375 -6.3125 L 1.71875 -4.84375 C 1.957031 -5.0625 2.207031 -5.222656 2.46875 -5.328125 C 2.738281 -5.429688 3.003906 -5.484375 3.265625 -5.484375 Z M 3.21875 -0.96875 C 3.632812 -0.96875 3.96875 -1.128906 4.21875 -1.453125 C 4.46875 -1.785156 4.59375 -2.210938 4.59375 -2.734375 C 4.59375 -3.234375 4.457031 -3.632812 4.1875 -3.9375 C 3.914062 -4.25 3.5625 -4.40625 3.125 -4.40625 C 2.84375 -4.40625 2.566406 -4.328125 2.296875 -4.171875 C 2.035156 -4.023438 1.84375 -3.804688 1.71875 -3.515625 L 1.71875 -1.921875 C 1.8125 -1.609375 2 -1.367188 2.28125 -1.203125 C 2.5625 -1.046875 2.875 -0.96875 3.21875 -0.96875 Z M 3.21875 -0.96875 "/></g></g></g><g clip-path="url(#9003628037)"><g fill="#00b2a9" fill-opacity="1"><g transform="translate(9.003428, 10.294888)"><g><path d="M 4.921875 -6.84375 C 5.078125 -6.84375 5.21875 -6.800781 5.34375 -6.71875 C 5.476562 -6.632812 5.546875 -6.5 5.546875 -6.3125 L 5.546875 -0.546875 C 5.546875 -0.179688 5.335938 0 4.921875 0 C 4.554688 0 4.367188 -0.164062 4.359375 -0.5 C 4.128906 -0.3125 3.875 -0.164062 3.59375 -0.0625 C 3.3125 0.0390625 3.046875 0.09375 2.796875 0.09375 C 2.265625 0.09375 1.804688 -0.0234375 1.421875 -0.265625 C 1.035156 -0.503906 0.738281 -0.835938 0.53125 -1.265625 C 0.332031 -1.703125 0.234375 -2.195312 0.234375 -2.75 C 0.234375 -3.28125 0.34375 -3.75 0.5625 -4.15625 C 0.78125 -4.570312 1.082031 -4.894531 1.46875 -5.125 C 1.863281 -5.363281 2.316406 -5.484375 2.828125 -5.484375 C 3.066406 -5.484375 3.316406 -5.4375 3.578125 -5.34375 C 3.847656 -5.257812 4.101562 -5.125 4.34375 -4.9375 L 4.34375 -6.3125 C 4.34375 -6.5 4.398438 -6.632812 4.515625 -6.71875 C 4.640625 -6.800781 4.773438 -6.84375 4.921875 -6.84375 Z M 2.828125 -0.96875 C 3.179688 -0.96875 3.5 -1.046875 3.78125 -1.203125 C 4.0625 -1.367188 4.253906 -1.601562 4.359375 -1.90625 L 4.34375 -3.53125 C 4.226562 -3.820312 4.035156 -4.039062 3.765625 -4.1875 C 3.492188 -4.34375 3.210938 -4.421875 2.921875 -4.421875 C 2.472656 -4.421875 2.113281 -4.257812 1.84375 -3.9375 C 1.570312 -3.613281 1.4375 -3.210938 1.4375 -2.734375 C 1.4375 -2.222656 1.5625 -1.800781 1.8125 -1.46875 C 2.070312 -1.132812 2.410156 -0.96875 2.828125 -0.96875 Z M 2.828125 -0.96875 "/></g></g></g></g></g></g></g></svg>