<svg xmlns="http://www.w3.org/2000/svg" xmlns:xlink="http://www.w3.org/1999/xlink" width="200" zoomAndPan="magnify" viewBox="0 0 150 74.999997" height="100" preserveAspectRatio="xMidYMid meet" version="1.0"><defs><g/><clipPath id="c526e5ed6f"><rect x="0" width="121" y="0" height="30"/></clipPath><clipPath id="dba87a9d37"><path d="M 0 23.414062 L 29.25 23.414062 L 29.25 46 L 0 46 Z M 0 23.414062 " clip-rule="nonzero"/></clipPath><clipPath id="503bae0bdd"><path d="M 10 29 L 19 29 L 19 55.664062 L 10 55.664062 Z M 10 29 " clip-rule="nonzero"/></clipPath><clipPath id="54c291e256"><path d="M 0.601562 13 L 3 13 L 3 15 L 0.601562 15 Z M 0.601562 13 " clip-rule="nonzero"/></clipPath><clipPath id="2f9ed04db6"><rect x="0" width="21" y="0" height="19"/></clipPath></defs><g transform="matrix(1, 0, 0, 1, 29, 23)"><g clip-path="url(#c526e5ed6f)"><g fill="#42788f" fill-opacity="1"><g transform="translate(0.301234, 21.991789)"><g><path d="M 9.359375 -16.359375 C 10.515625 -16.359375 11.59375 -16.15625 12.59375 -15.75 C 13.59375 -15.34375 14.5 -14.707031 15.3125 -13.84375 C 15.5 -13.625 15.570312 -13.410156 15.53125 -13.203125 C 15.5 -12.992188 15.394531 -12.816406 15.21875 -12.671875 C 15.039062 -12.523438 14.84375 -12.445312 14.625 -12.4375 C 14.40625 -12.425781 14.203125 -12.515625 14.015625 -12.703125 C 13.347656 -13.429688 12.625 -13.929688 11.84375 -14.203125 C 11.070312 -14.484375 10.265625 -14.625 9.421875 -14.625 C 8.742188 -14.625 8.023438 -14.519531 7.265625 -14.3125 C 6.503906 -14.113281 5.789062 -13.78125 5.125 -13.3125 C 4.457031 -12.84375 3.910156 -12.191406 3.484375 -11.359375 C 3.066406 -10.535156 2.859375 -9.5 2.859375 -8.25 C 2.859375 -6.988281 3.148438 -5.847656 3.734375 -4.828125 C 4.316406 -3.804688 5.097656 -2.992188 6.078125 -2.390625 C 7.054688 -1.796875 8.117188 -1.5 9.265625 -1.5 C 10.242188 -1.5 11.164062 -1.707031 12.03125 -2.125 C 12.90625 -2.550781 13.632812 -3.140625 14.21875 -3.890625 C 14.351562 -4.097656 14.535156 -4.207031 14.765625 -4.21875 C 14.992188 -4.238281 15.203125 -4.1875 15.390625 -4.0625 C 15.585938 -3.9375 15.722656 -3.765625 15.796875 -3.546875 C 15.878906 -3.335938 15.835938 -3.117188 15.671875 -2.890625 C 15.210938 -2.222656 14.628906 -1.65625 13.921875 -1.1875 C 13.210938 -0.71875 12.453125 -0.359375 11.640625 -0.109375 C 10.828125 0.128906 10.019531 0.25 9.21875 0.25 C 8.132812 0.25 7.101562 0.0390625 6.125 -0.375 C 5.144531 -0.800781 4.273438 -1.394531 3.515625 -2.15625 C 2.753906 -2.914062 2.15625 -3.816406 1.71875 -4.859375 C 1.28125 -5.898438 1.0625 -7.039062 1.0625 -8.28125 C 1.0625 -9.726562 1.328125 -10.960938 1.859375 -11.984375 C 2.390625 -13.003906 3.082031 -13.832031 3.9375 -14.46875 C 4.789062 -15.113281 5.695312 -15.585938 6.65625 -15.890625 C 7.613281 -16.203125 8.515625 -16.359375 9.359375 -16.359375 Z M 9.359375 -16.359375 "/></g></g></g><g fill="#42788f" fill-opacity="1"><g transform="translate(17.183223, 21.991789)"><g><path d="M 7.515625 0.25 C 6.179688 0.25 5.015625 -0.0546875 4.015625 -0.671875 C 3.023438 -1.285156 2.257812 -2.109375 1.71875 -3.140625 C 1.175781 -4.179688 0.90625 -5.328125 0.90625 -6.578125 C 0.90625 -7.804688 1.191406 -8.90625 1.765625 -9.875 C 2.335938 -10.851562 3.125 -11.628906 4.125 -12.203125 C 5.125 -12.773438 6.253906 -13.0625 7.515625 -13.0625 C 8.796875 -13.0625 9.929688 -12.757812 10.921875 -12.15625 C 11.921875 -11.5625 12.703125 -10.765625 13.265625 -9.765625 C 13.835938 -8.773438 14.125 -7.671875 14.125 -6.453125 C 14.125 -5.171875 13.835938 -4.023438 13.265625 -3.015625 C 12.691406 -2.003906 11.910156 -1.207031 10.921875 -0.625 C 9.929688 -0.0390625 8.796875 0.25 7.515625 0.25 Z M 7.5 -11.34375 C 6.6875 -11.34375 5.921875 -11.15625 5.203125 -10.78125 C 4.484375 -10.40625 3.898438 -9.851562 3.453125 -9.125 C 3.003906 -8.394531 2.78125 -7.476562 2.78125 -6.375 C 2.78125 -5.476562 2.976562 -4.660156 3.375 -3.921875 C 3.769531 -3.179688 4.320312 -2.59375 5.03125 -2.15625 C 5.738281 -1.71875 6.566406 -1.5 7.515625 -1.5 C 8.460938 -1.5 9.296875 -1.722656 10.015625 -2.171875 C 10.734375 -2.628906 11.289062 -3.222656 11.6875 -3.953125 C 12.082031 -4.691406 12.28125 -5.484375 12.28125 -6.328125 C 12.28125 -7.472656 12.046875 -8.410156 11.578125 -9.140625 C 11.117188 -9.878906 10.519531 -10.429688 9.78125 -10.796875 C 9.050781 -11.160156 8.289062 -11.34375 7.5 -11.34375 Z M 7.5 -11.34375 "/></g></g></g><g fill="#42788f" fill-opacity="1"><g transform="translate(32.59722, 21.991789)"><g><path d="M 3.421875 -10.90625 C 3.828125 -11.75 4.375 -12.316406 5.0625 -12.609375 C 5.75 -12.910156 6.457031 -13.0625 7.1875 -13.0625 C 7.476562 -13.0625 7.710938 -12.984375 7.890625 -12.828125 C 8.066406 -12.679688 8.15625 -12.460938 8.15625 -12.171875 C 8.15625 -11.898438 8.066406 -11.6875 7.890625 -11.53125 C 7.710938 -11.382812 7.476562 -11.3125 7.1875 -11.3125 C 6.320312 -11.3125 5.613281 -11.101562 5.0625 -10.6875 C 4.519531 -10.28125 4.117188 -9.722656 3.859375 -9.015625 C 3.597656 -8.316406 3.46875 -7.539062 3.46875 -6.6875 L 3.46875 -0.890625 C 3.46875 -0.617188 3.375 -0.398438 3.1875 -0.234375 C 3 -0.078125 2.789062 0 2.5625 0 C 2.289062 0 2.066406 -0.078125 1.890625 -0.234375 C 1.710938 -0.398438 1.625 -0.617188 1.625 -0.890625 L 1.625 -11.921875 C 1.625 -12.210938 1.722656 -12.429688 1.921875 -12.578125 C 2.128906 -12.734375 2.34375 -12.8125 2.5625 -12.8125 C 2.78125 -12.8125 2.976562 -12.734375 3.15625 -12.578125 C 3.332031 -12.429688 3.421875 -12.210938 3.421875 -11.921875 Z M 3.421875 -10.90625 "/></g></g></g><g fill="#42788f" fill-opacity="1"><g transform="translate(41.633067, 21.991789)"><g><path d="M 14.125 -6.03125 C 14.09375 -4.832031 13.800781 -3.757812 13.25 -2.8125 C 12.695312 -1.863281 11.941406 -1.113281 10.984375 -0.5625 C 10.023438 -0.0195312 8.910156 0.25 7.640625 0.25 C 6.796875 0.25 6 0.0859375 5.25 -0.234375 C 4.5 -0.566406 3.929688 -1.070312 3.546875 -1.75 L 3.546875 3.703125 C 3.546875 3.984375 3.453125 4.195312 3.265625 4.34375 C 3.078125 4.488281 2.859375 4.5625 2.609375 4.5625 C 2.367188 4.5625 2.15625 4.488281 1.96875 4.34375 C 1.789062 4.195312 1.703125 3.984375 1.703125 3.703125 L 1.703125 -11.921875 C 1.703125 -12.515625 2.007812 -12.8125 2.625 -12.8125 C 3.207031 -12.8125 3.5 -12.515625 3.5 -11.921875 L 3.5 -10.828125 C 3.9375 -11.535156 4.546875 -12.082031 5.328125 -12.46875 C 6.109375 -12.863281 6.878906 -13.0625 7.640625 -13.0625 C 8.828125 -13.0625 9.914062 -12.785156 10.90625 -12.234375 C 11.90625 -11.691406 12.695312 -10.894531 13.28125 -9.84375 C 13.875 -8.800781 14.15625 -7.53125 14.125 -6.03125 Z M 7.796875 -11.3125 C 7.035156 -11.3125 6.328125 -11.15625 5.671875 -10.84375 C 5.023438 -10.53125 4.507812 -10.078125 4.125 -9.484375 C 3.738281 -8.898438 3.546875 -8.191406 3.546875 -7.359375 L 3.546875 -5.359375 C 3.546875 -4.617188 3.722656 -3.960938 4.078125 -3.390625 C 4.429688 -2.816406 4.910156 -2.359375 5.515625 -2.015625 C 6.117188 -1.679688 6.800781 -1.5 7.5625 -1.46875 C 8.5625 -1.46875 9.398438 -1.671875 10.078125 -2.078125 C 10.765625 -2.492188 11.289062 -3.050781 11.65625 -3.75 C 12.03125 -4.457031 12.238281 -5.222656 12.28125 -6.046875 C 12.289062 -7.023438 12.097656 -7.910156 11.703125 -8.703125 C 11.304688 -9.492188 10.769531 -10.125 10.09375 -10.59375 C 9.425781 -11.070312 8.660156 -11.3125 7.796875 -11.3125 Z M 7.796875 -11.3125 "/></g></g></g><g fill="#42788f" fill-opacity="1"><g transform="translate(57.325484, 21.991789)"><g><path d="M 7.515625 0.25 C 6.179688 0.25 5.015625 -0.0546875 4.015625 -0.671875 C 3.023438 -1.285156 2.257812 -2.109375 1.71875 -3.140625 C 1.175781 -4.179688 0.90625 -5.328125 0.90625 -6.578125 C 0.90625 -7.804688 1.191406 -8.90625 1.765625 -9.875 C 2.335938 -10.851562 3.125 -11.628906 4.125 -12.203125 C 5.125 -12.773438 6.253906 -13.0625 7.515625 -13.0625 C 8.796875 -13.0625 9.929688 -12.757812 10.921875 -12.15625 C 11.921875 -11.5625 12.703125 -10.765625 13.265625 -9.765625 C 13.835938 -8.773438 14.125 -7.671875 14.125 -6.453125 C 14.125 -5.171875 13.835938 -4.023438 13.265625 -3.015625 C 12.691406 -2.003906 11.910156 -1.207031 10.921875 -0.625 C 9.929688 -0.0390625 8.796875 0.25 7.515625 0.25 Z M 7.5 -11.34375 C 6.6875 -11.34375 5.921875 -11.15625 5.203125 -10.78125 C 4.484375 -10.40625 3.898438 -9.851562 3.453125 -9.125 C 3.003906 -8.394531 2.78125 -7.476562 2.78125 -6.375 C 2.78125 -5.476562 2.976562 -4.660156 3.375 -3.921875 C 3.769531 -3.179688 4.320312 -2.59375 5.03125 -2.15625 C 5.738281 -1.71875 6.566406 -1.5 7.515625 -1.5 C 8.460938 -1.5 9.296875 -1.722656 10.015625 -2.171875 C 10.734375 -2.628906 11.289062 -3.222656 11.6875 -3.953125 C 12.082031 -4.691406 12.28125 -5.484375 12.28125 -6.328125 C 12.28125 -7.472656 12.046875 -8.410156 11.578125 -9.140625 C 11.117188 -9.878906 10.519531 -10.429688 9.78125 -10.796875 C 9.050781 -11.160156 8.289062 -11.34375 7.5 -11.34375 Z M 7.5 -11.34375 "/></g></g></g><g fill="#42788f" fill-opacity="1"><g transform="translate(72.739481, 21.991789)"><g><path d="M 3.421875 -10.90625 C 3.828125 -11.75 4.375 -12.316406 5.0625 -12.609375 C 5.75 -12.910156 6.457031 -13.0625 7.1875 -13.0625 C 7.476562 -13.0625 7.710938 -12.984375 7.890625 -12.828125 C 8.066406 -12.679688 8.15625 -12.460938 8.15625 -12.171875 C 8.15625 -11.898438 8.066406 -11.6875 7.890625 -11.53125 C 7.710938 -11.382812 7.476562 -11.3125 7.1875 -11.3125 C 6.320312 -11.3125 5.613281 -11.101562 5.0625 -10.6875 C 4.519531 -10.28125 4.117188 -9.722656 3.859375 -9.015625 C 3.597656 -8.316406 3.46875 -7.539062 3.46875 -6.6875 L 3.46875 -0.890625 C 3.46875 -0.617188 3.375 -0.398438 3.1875 -0.234375 C 3 -0.078125 2.789062 0 2.5625 0 C 2.289062 0 2.066406 -0.078125 1.890625 -0.234375 C 1.710938 -0.398438 1.625 -0.617188 1.625 -0.890625 L 1.625 -11.921875 C 1.625 -12.210938 1.722656 -12.429688 1.921875 -12.578125 C 2.128906 -12.734375 2.34375 -12.8125 2.5625 -12.8125 C 2.78125 -12.8125 2.976562 -12.734375 3.15625 -12.578125 C 3.332031 -12.429688 3.421875 -12.210938 3.421875 -11.921875 Z M 3.421875 -10.90625 "/></g></g></g><g fill="#42788f" fill-opacity="1"><g transform="translate(81.269059, 21.991789)"><g><path d="M 7.5 -13.0625 C 8.21875 -13.0625 8.945312 -12.910156 9.6875 -12.609375 C 10.4375 -12.316406 11.035156 -11.800781 11.484375 -11.0625 L 11.484375 -11.890625 C 11.484375 -12.160156 11.5625 -12.378906 11.71875 -12.546875 C 11.882812 -12.722656 12.113281 -12.8125 12.40625 -12.8125 C 12.6875 -12.8125 12.910156 -12.722656 13.078125 -12.546875 C 13.253906 -12.378906 13.34375 -12.160156 13.34375 -11.890625 L 13.34375 -0.90625 C 13.34375 -0.632812 13.253906 -0.414062 13.078125 -0.25 C 12.910156 -0.0820312 12.6875 0 12.40625 0 C 11.789062 0 11.484375 -0.300781 11.484375 -0.90625 L 11.484375 -2 C 11.253906 -1.507812 10.910156 -1.09375 10.453125 -0.75 C 9.992188 -0.414062 9.492188 -0.164062 8.953125 0 C 8.421875 0.164062 7.898438 0.25 7.390625 0.25 C 6.171875 0.25 5.070312 -0.015625 4.09375 -0.546875 C 3.113281 -1.085938 2.335938 -1.859375 1.765625 -2.859375 C 1.191406 -3.867188 0.90625 -5.078125 0.90625 -6.484375 C 0.90625 -7.929688 1.203125 -9.140625 1.796875 -10.109375 C 2.398438 -11.078125 3.195312 -11.8125 4.1875 -12.3125 C 5.1875 -12.8125 6.289062 -13.0625 7.5 -13.0625 Z M 7.421875 -1.5 C 8.160156 -1.53125 8.835938 -1.695312 9.453125 -2 C 10.066406 -2.300781 10.554688 -2.738281 10.921875 -3.3125 C 11.296875 -3.882812 11.484375 -4.578125 11.484375 -5.390625 L 11.484375 -7.390625 C 11.484375 -8.640625 11.097656 -9.59375 10.328125 -10.25 C 9.566406 -10.90625 8.613281 -11.257812 7.46875 -11.3125 C 6.457031 -11.332031 5.597656 -11.117188 4.890625 -10.671875 C 4.191406 -10.222656 3.660156 -9.625 3.296875 -8.875 C 2.941406 -8.132812 2.765625 -7.335938 2.765625 -6.484375 C 2.765625 -5.554688 2.921875 -4.773438 3.234375 -4.140625 C 3.554688 -3.503906 3.96875 -2.992188 4.46875 -2.609375 C 4.96875 -2.222656 5.484375 -1.941406 6.015625 -1.765625 C 6.546875 -1.585938 7.015625 -1.5 7.421875 -1.5 Z M 7.421875 -1.5 "/></g></g></g><g fill="#42788f" fill-opacity="1"><g transform="translate(96.860223, 21.991789)"><g><path d="M 7.265625 -12.8125 C 7.648438 -12.8125 7.90625 -12.679688 8.03125 -12.421875 C 8.15625 -12.171875 8.15625 -11.914062 8.03125 -11.65625 C 7.90625 -11.394531 7.648438 -11.265625 7.265625 -11.265625 L 4.5 -11.265625 L 4.5 -4.375 C 4.5 -3.90625 4.539062 -3.441406 4.625 -2.984375 C 4.71875 -2.523438 4.898438 -2.148438 5.171875 -1.859375 C 5.453125 -1.566406 5.878906 -1.421875 6.453125 -1.421875 C 6.640625 -1.421875 6.851562 -1.445312 7.09375 -1.5 C 7.34375 -1.5625 7.523438 -1.628906 7.640625 -1.703125 C 7.910156 -1.847656 8.148438 -1.882812 8.359375 -1.8125 C 8.578125 -1.738281 8.738281 -1.601562 8.84375 -1.40625 C 8.957031 -1.207031 8.984375 -0.988281 8.921875 -0.75 C 8.859375 -0.519531 8.6875 -0.328125 8.40625 -0.171875 C 8.082031 -0.00390625 7.757812 0.101562 7.4375 0.15625 C 7.113281 0.21875 6.785156 0.25 6.453125 0.25 C 5.441406 0.25 4.664062 0.03125 4.125 -0.40625 C 3.582031 -0.84375 3.207031 -1.414062 3 -2.125 C 2.789062 -2.832031 2.6875 -3.582031 2.6875 -4.375 L 2.6875 -11.265625 L 1.015625 -11.265625 C 0.628906 -11.265625 0.367188 -11.394531 0.234375 -11.65625 C 0.109375 -11.914062 0.113281 -12.171875 0.25 -12.421875 C 0.382812 -12.679688 0.640625 -12.8125 1.015625 -12.8125 L 2.6875 -12.8125 L 2.6875 -15.8125 C 2.6875 -16.125 2.773438 -16.351562 2.953125 -16.5 C 3.140625 -16.65625 3.351562 -16.734375 3.59375 -16.734375 C 3.832031 -16.734375 4.039062 -16.65625 4.21875 -16.5 C 4.40625 -16.351562 4.5 -16.125 4.5 -15.8125 L 4.5 -12.8125 Z M 7.265625 -12.8125 "/></g></g></g><g fill="#42788f" fill-opacity="1"><g transform="translate(106.073147, 21.991789)"><g><path d="M 14.125 -6.484375 C 14.125 -6.210938 14.046875 -5.945312 13.890625 -5.6875 C 13.742188 -5.4375 13.410156 -5.3125 12.890625 -5.3125 L 2.890625 -5.3125 C 3.003906 -4.625 3.265625 -3.984375 3.671875 -3.390625 C 4.078125 -2.796875 4.609375 -2.320312 5.265625 -1.96875 C 5.921875 -1.613281 6.671875 -1.4375 7.515625 -1.4375 C 8.109375 -1.4375 8.695312 -1.519531 9.28125 -1.6875 C 9.863281 -1.863281 10.398438 -2.132812 10.890625 -2.5 C 11.109375 -2.707031 11.335938 -2.804688 11.578125 -2.796875 C 11.828125 -2.785156 12.035156 -2.707031 12.203125 -2.5625 C 12.367188 -2.425781 12.457031 -2.238281 12.46875 -2 C 12.476562 -1.757812 12.351562 -1.515625 12.09375 -1.265625 C 11.519531 -0.722656 10.832031 -0.328125 10.03125 -0.078125 C 9.226562 0.160156 8.414062 0.269531 7.59375 0.25 C 6.257812 0.25 5.097656 -0.0390625 4.109375 -0.625 C 3.117188 -1.21875 2.351562 -2.019531 1.8125 -3.03125 C 1.28125 -4.050781 1.015625 -5.191406 1.015625 -6.453125 C 1.015625 -7.890625 1.328125 -9.097656 1.953125 -10.078125 C 2.578125 -11.054688 3.378906 -11.796875 4.359375 -12.296875 C 5.347656 -12.804688 6.382812 -13.0625 7.46875 -13.0625 C 8.613281 -13.0625 9.6875 -12.828125 10.6875 -12.359375 C 11.695312 -11.898438 12.515625 -11.1875 13.140625 -10.21875 C 13.773438 -9.257812 14.101562 -8.015625 14.125 -6.484375 Z M 2.8125 -6.859375 L 12.359375 -6.859375 C 12.265625 -7.867188 11.972656 -8.707031 11.484375 -9.375 C 10.992188 -10.039062 10.398438 -10.535156 9.703125 -10.859375 C 9.003906 -11.179688 8.300781 -11.34375 7.59375 -11.34375 C 6.800781 -11.34375 6.050781 -11.179688 5.34375 -10.859375 C 4.644531 -10.535156 4.066406 -10.039062 3.609375 -9.375 C 3.160156 -8.707031 2.894531 -7.867188 2.8125 -6.859375 Z M 2.8125 -6.859375 "/></g></g></g></g></g><g clip-path="url(#dba87a9d37)"><path fill="#00b2a9" d="M 27.261719 26.945312 L 10.109375 26.945312 L 10.109375 24.902344 C 10.109375 24.574219 10.359375 24.421875 10.636719 24.421875 L 17.648438 24.421875 C 17.953125 24.421875 18.179688 24.675781 18.179688 25.003906 L 18.179688 25.9375 C 18.179688 26.214844 18.40625 26.441406 18.683594 26.441406 C 18.960938 26.441406 19.1875 26.214844 19.1875 25.9375 L 19.1875 25.003906 C 19.1875 24.121094 18.507812 23.414062 17.648438 23.414062 L 10.636719 23.414062 C 9.753906 23.414062 9.097656 24.070312 9.097656 24.902344 L 9.097656 26.945312 L 2.035156 26.945312 C 0.925781 26.945312 0.0195312 27.851562 0.0195312 28.960938 L 0.0195312 43.84375 C 0.0195312 44.953125 0.925781 45.863281 2.035156 45.863281 L 10.285156 45.863281 L 10.4375 44.851562 L 2.035156 44.851562 C 1.480469 44.851562 1.027344 44.398438 1.027344 43.84375 L 1.027344 33 L 3.800781 33 L 3.800781 34.511719 C 3.800781 34.789062 4.03125 35.015625 4.308594 35.015625 L 6.324219 35.015625 C 6.601562 35.015625 6.828125 34.789062 6.828125 34.511719 L 6.828125 33 L 10.109375 33 C 10.386719 33 10.613281 32.769531 10.613281 32.492188 C 10.613281 32.214844 10.386719 31.988281 10.109375 31.988281 L 1.027344 31.988281 L 1.027344 28.960938 C 1.027344 28.40625 1.480469 27.953125 2.035156 27.953125 L 27.261719 27.953125 C 27.816406 27.953125 28.269531 28.40625 28.269531 28.960938 L 28.269531 31.988281 L 19.1875 31.988281 C 18.910156 31.988281 18.683594 32.214844 18.683594 32.492188 C 18.683594 32.769531 18.910156 33 19.1875 33 L 22.46875 33 L 22.46875 34.511719 C 22.46875 34.789062 22.695312 35.015625 22.972656 35.015625 L 24.988281 35.015625 C 25.265625 35.015625 25.496094 34.789062 25.496094 34.511719 L 25.496094 33 L 28.269531 33 L 28.269531 43.84375 C 28.269531 44.398438 27.816406 44.851562 27.261719 44.851562 L 18.910156 44.851562 L 19.0625 45.863281 L 27.261719 45.863281 C 28.371094 45.863281 29.277344 44.953125 29.277344 43.84375 L 29.277344 28.960938 C 29.277344 27.851562 28.371094 26.945312 27.261719 26.945312 Z M 5.820312 34.007812 L 4.8125 34.007812 L 4.8125 33 L 5.820312 33 Z M 24.484375 34.007812 L 23.476562 34.007812 L 23.476562 33 L 24.484375 33 Z M 24.484375 34.007812 " fill-opacity="1" fill-rule="nonzero"/></g><g clip-path="url(#503bae0bdd)"><path fill="#00b2a9" d="M 16.3125 34.007812 C 16.539062 33.980469 16.714844 33.832031 16.765625 33.605469 L 17.421875 30.601562 C 17.421875 30.601562 17.421875 30.578125 17.421875 30.578125 C 17.472656 30.300781 17.398438 29.996094 17.222656 29.796875 C 17.042969 29.59375 16.792969 29.46875 16.515625 29.46875 L 12.78125 29.46875 C 12.503906 29.46875 12.253906 29.59375 12.074219 29.796875 C 11.898438 29.996094 11.824219 30.300781 11.875 30.578125 C 11.875 30.578125 11.875 30.601562 11.875 30.601562 L 12.53125 33.605469 C 12.582031 33.832031 12.78125 34.007812 13.035156 34.007812 L 13.109375 34.007812 L 10.359375 52.015625 C 10.335938 52.191406 10.410156 52.371094 10.539062 52.496094 L 14.371094 55.597656 C 14.472656 55.671875 14.574219 55.699219 14.699219 55.699219 C 14.824219 55.699219 14.925781 55.648438 15.027344 55.574219 L 18.757812 52.46875 C 18.886719 52.371094 18.960938 52.191406 18.9375 52.015625 Z M 11.621094 52.066406 L 16.96875 45.609375 L 17.195312 47.148438 L 12.503906 52.773438 Z M 12.90625 30.476562 L 16.414062 30.476562 L 15.882812 33 L 13.464844 33 Z M 15.277344 34.007812 L 16.765625 44.273438 L 11.621094 50.476562 L 14.144531 34.007812 Z M 14.699219 54.539062 L 13.3125 53.402344 L 17.421875 48.484375 L 17.925781 51.890625 Z M 14.699219 54.539062 " fill-opacity="1" fill-rule="nonzero"/></g><path fill="#00b2a9" d="M 15.152344 31.738281 C 15.152344 31.875 15.105469 31.996094 15.003906 32.09375 C 14.90625 32.191406 14.789062 32.242188 14.648438 32.242188 C 14.507812 32.242188 14.390625 32.191406 14.292969 32.09375 C 14.191406 31.996094 14.144531 31.875 14.144531 31.738281 C 14.144531 31.597656 14.191406 31.480469 14.292969 31.378906 C 14.390625 31.28125 14.507812 31.234375 14.648438 31.234375 C 14.789062 31.234375 14.90625 31.28125 15.003906 31.378906 C 15.105469 31.480469 15.152344 31.597656 15.152344 31.738281 Z M 15.152344 31.738281 " fill-opacity="1" fill-rule="nonzero"/><g transform="matrix(1, 0, 0, 1, 129, 46)"><g clip-path="url(#2f9ed04db6)"><g clip-path="url(#54c291e256)"><g fill="#00b2a9" fill-opacity="1"><g transform="translate(0.601413, 14.828274)"><g><path d="M 1.109375 -1.640625 C 1.398438 -1.640625 1.632812 -1.554688 1.8125 -1.390625 C 2 -1.222656 2.09375 -1.003906 2.09375 -0.734375 C 2.09375 -0.484375 2 -0.269531 1.8125 -0.09375 C 1.632812 0.0703125 1.398438 0.15625 1.109375 0.15625 C 0.816406 0.15625 0.570312 0.0703125 0.375 -0.09375 C 0.1875 -0.269531 0.09375 -0.484375 0.09375 -0.734375 C 0.09375 -1.003906 0.1875 -1.222656 0.375 -1.390625 C 0.570312 -1.554688 0.816406 -1.640625 1.109375 -1.640625 Z M 1.109375 -1.640625 "/></g></g></g></g><g fill="#00b2a9" fill-opacity="1"><g transform="translate(2.769861, 14.828274)"><g><path d="M 4.734375 -7.984375 C 5.523438 -7.984375 6.191406 -7.816406 6.734375 -7.484375 C 7.285156 -7.148438 7.707031 -6.679688 8 -6.078125 C 8.289062 -5.484375 8.4375 -4.789062 8.4375 -4 C 8.4375 -3.21875 8.300781 -2.507812 8.03125 -1.875 C 7.757812 -1.25 7.367188 -0.753906 6.859375 -0.390625 C 6.359375 -0.0234375 5.753906 0.15625 5.046875 0.15625 C 4.566406 0.15625 4.109375 0.078125 3.671875 -0.078125 C 3.242188 -0.242188 2.847656 -0.484375 2.484375 -0.796875 C 2.484375 -0.265625 2.207031 0 1.65625 0 C 1.382812 0 1.164062 -0.0664062 1 -0.203125 C 0.84375 -0.347656 0.765625 -0.539062 0.765625 -0.78125 L 0.765625 -9.171875 C 0.765625 -9.441406 0.851562 -9.640625 1.03125 -9.765625 C 1.21875 -9.890625 1.421875 -9.953125 1.640625 -9.953125 C 1.859375 -9.953125 2.054688 -9.890625 2.234375 -9.765625 C 2.421875 -9.640625 2.515625 -9.441406 2.515625 -9.171875 L 2.5 -7.046875 C 2.84375 -7.359375 3.207031 -7.59375 3.59375 -7.75 C 3.988281 -7.90625 4.367188 -7.984375 4.734375 -7.984375 Z M 4.671875 -1.421875 C 5.273438 -1.421875 5.757812 -1.65625 6.125 -2.125 C 6.5 -2.59375 6.6875 -3.210938 6.6875 -3.984375 C 6.6875 -4.710938 6.488281 -5.296875 6.09375 -5.734375 C 5.695312 -6.179688 5.175781 -6.40625 4.53125 -6.40625 C 4.125 -6.40625 3.726562 -6.289062 3.34375 -6.0625 C 2.957031 -5.84375 2.675781 -5.523438 2.5 -5.109375 L 2.484375 -2.796875 C 2.628906 -2.335938 2.90625 -1.992188 3.3125 -1.765625 C 3.726562 -1.535156 4.179688 -1.421875 4.671875 -1.421875 Z M 4.671875 -1.421875 "/></g></g></g><g fill="#00b2a9" fill-opacity="1"><g transform="translate(12.274085, 14.828274)"><g><path d="M 7.171875 -9.953125 C 7.378906 -9.953125 7.578125 -9.890625 7.765625 -9.765625 C 7.960938 -9.640625 8.0625 -9.441406 8.0625 -9.171875 L 8.0625 -0.78125 C 8.0625 -0.257812 7.765625 0 7.171875 0 C 6.628906 0 6.347656 -0.242188 6.328125 -0.734375 C 6.003906 -0.453125 5.632812 -0.234375 5.21875 -0.078125 C 4.8125 0.0664062 4.425781 0.140625 4.0625 0.140625 C 3.289062 0.140625 2.625 -0.03125 2.0625 -0.375 C 1.507812 -0.726562 1.082031 -1.21875 0.78125 -1.84375 C 0.488281 -2.46875 0.34375 -3.1875 0.34375 -4 C 0.34375 -4.78125 0.5 -5.46875 0.8125 -6.0625 C 1.132812 -6.65625 1.578125 -7.125 2.140625 -7.46875 C 2.710938 -7.8125 3.375 -7.984375 4.125 -7.984375 C 4.457031 -7.984375 4.816406 -7.914062 5.203125 -7.78125 C 5.597656 -7.644531 5.960938 -7.445312 6.296875 -7.1875 L 6.296875 -9.171875 C 6.296875 -9.441406 6.382812 -9.640625 6.5625 -9.765625 C 6.75 -9.890625 6.953125 -9.953125 7.171875 -9.953125 Z M 4.109375 -1.421875 C 4.617188 -1.421875 5.082031 -1.535156 5.5 -1.765625 C 5.914062 -1.992188 6.191406 -2.328125 6.328125 -2.765625 L 6.3125 -5.140625 C 6.144531 -5.554688 5.863281 -5.875 5.46875 -6.09375 C 5.070312 -6.3125 4.664062 -6.421875 4.25 -6.421875 C 3.601562 -6.421875 3.082031 -6.1875 2.6875 -5.71875 C 2.289062 -5.257812 2.09375 -4.679688 2.09375 -3.984375 C 2.09375 -3.234375 2.273438 -2.617188 2.640625 -2.140625 C 3.015625 -1.660156 3.503906 -1.421875 4.109375 -1.421875 Z M 4.109375 -1.421875 "/></g></g></g></g></g></svg>